grf
version=1
nRows=15
nColumns=37
inDegrees=no
endheader
time	ground_force_1_vx	ground_force_1_vy	ground_force_1_vz	ground_force_1_px	ground_force_1_py	ground_force_1_pz	ground_moment_1_mx	ground_moment_1_my	ground_moment_1_mz	ground_force_2_vx	ground_force_2_vy	ground_force_2_vz	ground_force_2_px	ground_force_2_py	ground_force_2_pz	ground_moment_2_mx	ground_moment_2_my	ground_moment_2_mz	ground_force_3_vx	ground_force_3_vy	ground_force_3_vz	ground_force_3_px	ground_force_3_py	ground_force_3_pz	ground_moment_3_mx	ground_moment_3_my	ground_moment_3_mz	ground_force_4_vx	ground_force_4_vy	ground_force_4_vz	ground_force_4_px	ground_force_4_py	ground_force_4_pz	ground_moment_4_mx	ground_moment_4_my	ground_moment_4_mz
      4.08000000	      0.00000000	     -0.00000000	      0.00000000	      0.00000000	      0.00000000	      0.00000000	      0.00000000	      0.00000000	      0.00000000	    -23.57922745	     25.38967514	   -368.34191895	   -224.68652113	  -1069.41588198	      0.00000000	      0.00000000	      0.00000000	   9975.74997668	      5.39915509	    -22.35145998	   -381.57470703	   -237.18328219	   -707.87875374	      0.00000000	      0.00000000	     -0.00000000	  -7410.20927892	      0.00000000	     -0.00000000	      0.00000000	      0.00000000	      0.00000000	      0.00000000	      0.00000000	      0.00000000	      0.00000000
      4.09000000	      0.00000000	     -0.00000000	      0.00000000	      0.00000000	      0.00000000	      0.00000000	      0.00000000	      0.00000000	      0.00000000	    -23.48994255	     26.53330612	   -374.64038086	   -225.81678654	  -1068.96951634	      0.00000000	      0.00000000	      0.00000000	   9991.55594822	      5.90983338	    -22.35168509	   -381.14059448	   -237.23832364	   -708.47700728	      0.00000000	      0.00000000	     -0.00000000	  -7419.32447757	      0.00000000	     -0.00000000	      0.00000000	      0.00000000	      0.00000000	      0.00000000	      0.00000000	      0.00000000	      0.00000000
      4.10000000	      0.00000000	     -0.00000000	      0.00000000	      0.00000000	      0.00000000	      0.00000000	      0.00000000	      0.00000000	      0.00000000	    -23.96344185	     26.93820000	   -382.98242188	   -226.71889518	  -1071.08873612	      0.00000000	      0.00000000	     -0.00000000	  10101.32899148	      5.63704826	    -21.69336559	   -382.91149902	   -237.53364130	   -708.49111634	      0.00000000	      0.00000000	     -0.00000000	  -7489.86850789	      0.00000000	     -0.00000000	      0.00000000	      0.00000000	      0.00000000	      0.00000000	      0.00000000	      0.00000000	      0.00000000
      4.11000000	      0.00000000	     -0.00000000	      0.00000000	      0.00000000	      0.00000000	      0.00000000	      0.00000000	      0.00000000	      0.00000000	    -23.37315369	     26.82139587	   -390.01931763	   -229.00603052	  -1070.56647467	      0.00000000	      0.00000000	      0.00000000	  10587.22870679	      5.45931579	    -21.64549303	   -390.43270874	   -238.67606988	   -707.96687358	      0.00000000	      0.00000000	     -0.00000000	  -7706.20985043	      0.00000000	     -0.00000000	      0.00000000	      0.00000000	      0.00000000	      0.00000000	      0.00000000	      0.00000000	      0.00000000
      4.12000000	      0.00000000	     -0.00000000	      0.00000000	      0.00000000	      0.00000000	      0.00000000	      0.00000000	      0.00000000	      0.00000000	    -22.59763336	     27.29417038	   -393.52279663	   -229.90695539	  -1068.53586050	      0.00000000	      0.00000000	     -0.00000000	  10504.85329515	      5.55458501	    -21.43503047	   -397.68371582	   -240.57540402	   -708.43107500	      0.00000000	     -0.00000000	     -0.00000000	  -7873.53503439	      0.00000000	     -0.00000000	      0.00000000	      0.00000000	      0.00000000	      0.00000000	      0.00000000	      0.00000000	      0.00000000
      4.13000000	      0.00000000	     -0.00000000	      0.00000000	      0.00000000	      0.00000000	      0.00000000	      0.00000000	      0.00000000	      0.00000000	    -21.58894348	     27.84325409	   -400.39794922	   -231.07226575	  -1068.77872356	      0.00000000	      0.00000000	      0.00000000	  10638.17542643	      6.31851535	    -21.25134714	   -402.94906616	   -241.37694780	   -709.47433149	      0.00000000	      0.00000000	     -0.00000000	  -7920.15174103	      0.00000000	     -0.00000000	      0.00000000	      0.00000000	      0.00000000	      0.00000000	      0.00000000	      0.00000000	      0.00000000
      4.14000000	      0.00000000	     -0.00000000	      0.00000000	      0.00000000	      0.00000000	      0.00000000	      0.00000000	      0.00000000	      0.00000000	    -20.51841736	     28.38568115	   -406.63656616	   -233.19699892	  -1067.45253964	      0.00000000	      0.00000000	      0.00000000	  10873.55813184	      8.21562966	    -20.85123897	   -412.10565186	   -244.05846045	   -709.85626722	      0.00000000	      0.00000000	     -0.00000000	  -8196.84260362	      0.00000000	     -0.00000000	      0.00000000	      0.00000000	      0.00000000	      0.00000000	      0.00000000	      0.00000000	      0.00000000
      4.15000000	      0.00000000	     -0.00000000	      0.00000000	      0.00000000	      0.00000000	      0.00000000	      0.00000000	      0.00000000	      0.00000000	    -18.78450012	     29.25421333	   -415.37014771	   -235.74995006	  -1068.43028697	      0.00000000	     -0.00000000	      0.00000000	  11040.71889847	     10.00921645	    -20.19121448	   -420.43798828	   -245.73271178	   -710.51752217	      0.00000000	      0.00000000	     -0.00000000	  -8275.78935970	      0.00000000	     -0.00000000	      0.00000000	      0.00000000	      0.00000000	      0.00000000	      0.00000000	      0.00000000	      0.00000000
      4.16000000	      0.00000000	     -0.00000000	      0.00000000	      0.00000000	      0.00000000	      0.00000000	      0.00000000	      0.00000000	      0.00000000	    -16.36053085	     30.40926361	   -421.49566650	   -236.52266440	  -1066.88484959	      0.00000000	      0.00000000	      0.00000000	  11278.76808119	     10.78023258	    -20.13734530	   -426.87570190	   -247.32961167	   -711.63550046	      0.00000000	      0.00000000	     -0.00000000	  -8185.36976781	      0.00000000	     -0.00000000	      0.00000000	      0.00000000	      0.00000000	      0.00000000	      0.00000000	      0.00000000	      0.00000000
      4.17000000	      0.00000000	     -0.00000000	      0.00000000	      0.00000000	      0.00000000	      0.00000000	      0.00000000	      0.00000000	      0.00000000	    -14.14931297	     30.74186325	   -428.48205566	   -239.17295595	  -1066.50854286	      0.00000000	      0.00000000	      0.00000000	  11406.19099271	     12.11849132	    -20.18001281	   -436.65136719	   -249.82280407	   -711.15035182	      0.00000000	      0.00000000	     -0.00000000	  -8344.79486111	      0.00000000	     -0.00000000	      0.00000000	      0.00000000	      0.00000000	      0.00000000	      0.00000000	      0.00000000	      0.00000000
      4.18000000	      0.00000000	     -0.00000000	      0.00000000	      0.00000000	      0.00000000	      0.00000000	      0.00000000	      0.00000000	      0.00000000	    -11.37532616	     31.25783539	   -435.93078613	   -241.01626901	  -1066.72094440	      0.00000000	      0.00000000	      0.00000000	  11571.60153490	     13.08601106	    -20.35698242	   -444.02444458	   -252.09175653	   -712.94762633	      0.00000000	      0.00000000	     -0.00000000	  -8183.17657706	      0.00000000	     -0.00000000	      0.00000000	      0.00000000	      0.00000000	      0.00000000	      0.00000000	      0.00000000	      0.00000000
      4.19000000	      0.00000000	     -0.00000000	      0.00000000	      0.00000000	      0.00000000	      0.00000000	      0.00000000	      0.00000000	      0.00000000	     -8.35889339	     31.46303177	   -444.33932495	   -243.54679082	  -1066.34759426	      0.00000000	      0.00000000	      0.00000000	  11472.28626417	     15.03732218	    -20.28732431	   -454.59539795	   -254.48614304	   -713.49031848	      0.00000000	      0.00000000	     -0.00000000	  -8215.54390546	      0.00000000	     -0.00000000	      0.00000000	      0.00000000	      0.00000000	      0.00000000	      0.00000000	      0.00000000	      0.00000000
      4.20000000	      0.00000000	     -0.00000000	      0.00000000	      0.00000000	      0.00000000	      0.00000000	      0.00000000	      0.00000000	      0.00000000	     -4.76372910	     31.63254738	   -456.20230103	   -246.41646143	  -1067.71886020	      0.00000000	      0.00000000	      0.00000000	  11489.14606174	     16.95234696	    -20.02243381	   -464.72082520	   -256.70863379	   -714.02604218	      0.00000000	      0.00000000	     -0.00000000	  -8348.33794936	      0.00000000	     -0.00000000	      0.00000000	      0.00000000	      0.00000000	      0.00000000	      0.00000000	      0.00000000	      0.00000000
      4.21000000	      0.00000000	     -0.00000000	      0.00000000	      0.00000000	      0.00000000	      0.00000000	      0.00000000	      0.00000000	      0.00000000	     -1.32035398	     31.97108459	   -466.51525879	   -248.65233602	  -1066.63463627	      0.00000000	      0.00000000	      0.00000000	  11048.05280000	     18.34556023	    -20.07554978	   -477.74426270	   -258.80432217	   -714.14953240	      0.00000000	      0.00000000	     -0.00000000	  -8582.19673920	      0.00000000	     -0.00000000	      0.00000000	      0.00000000	      0.00000000	      0.00000000	      0.00000000	      0.00000000	      0.00000000
      4.22000000	      0.00000000	     -0.00000000	      0.00000000	      0.00000000	      0.00000000	      0.00000000	      0.00000000	      0.00000000	      0.00000000	      3.48756313	     31.40971565	   -480.07717896	   -251.40581962	  -1066.44253119	      0.00000000	      0.00000000	      0.00000000	  10965.16771028	     21.53872320	    -19.44826887	   -490.83633423	   -261.30253983	   -714.86591374	      0.00000000	     -0.00000000	     -0.00000000	  -8691.45931719	      0.00000000	     -0.00000000	      0.00000000	      0.00000000	      0.00000000	      0.00000000	      0.00000000	      0.00000000	      0.00000000
